<svg width="759" height="156" viewBox="0 0 759 156" fill="none" xmlns="http://www.w3.org/2000/svg">
<path d="M158.469 4.84398V52.0732H107.606V150.165H50.8622V52.0732H-2.56203e-05V4.84398H158.469ZM249.07 150.165L244.399 134.421H188.519L183.675 150.165H125.028L176.582 4.84398H256.163L307.717 150.165H249.07ZM201.148 92.7283H231.77L221.216 57.9552H211.701L201.148 92.7283ZM304.578 150.165V4.84398H391.425C431.734 4.84398 456.819 21.798 456.819 63.8372C456.819 105.876 431.734 123.003 391.771 123.003H361.496V150.165H304.578ZM361.496 75.9473H386.062C394.02 75.9473 399.383 71.7952 399.383 63.8372C399.383 55.8792 394.02 51.9002 386.408 51.9002H361.496V75.9473ZM558.865 150.165L554.194 134.421H498.315L493.471 150.165H434.824L486.378 4.84398H565.958L617.512 150.165H558.865ZM510.944 92.7283H541.565L531.012 57.9552H521.497L510.944 92.7283ZM680.547 155.009C626.398 154.836 602.524 139.266 604.427 99.1293H655.462C655.462 106.395 661.863 110.72 680.547 110.893C696.117 111.239 701.999 107.606 701.999 103.973C701.999 102.935 703.21 98.0913 691.1 96.7073L671.897 93.7663C644.39 89.6143 607.541 88.9223 607.541 48.0941C607.541 18.511 631.069 -4.38843e-05 680.893 -4.38843e-05C725.181 -4.38843e-05 755.975 10.38 754.418 55.5332H703.729C702.345 48.2671 695.598 43.9421 679.682 43.9421C666.188 43.9421 662.209 47.5751 662.209 51.0352C662.209 52.0732 661.863 56.7442 670.34 57.7822L685.564 60.2042C715.147 65.0482 758.57 63.3182 758.57 106.395C758.57 139.958 733.312 155.355 680.547 155.009Z" fill="url(#paint0_linear_229_2527)"/>
<defs>
<linearGradient id="paint0_linear_229_2527" x1="780.995" y1="-74.1216" x2="715.644" y2="292.478" gradientUnits="userSpaceOnUse">
<stop offset="0.458675" stop-color="#AAC9E4"/>
<stop offset="1" stop-color="#6A8299"/>
</linearGradient>
</defs>
</svg>
